<?xml version="1.0" ?><!DOCTYPE svg  PUBLIC '-//W3C//DTD SVG 1.1//EN'  'http://www.w3.org/Graphics/SVG/1.1/DTD/svg11.dtd'><svg height="100%" style="fill-rule:evenodd;clip-rule:evenodd;stroke-linejoin:round;stroke-miterlimit:2;" version="1.1" viewBox="0 0 32 32" width="100%" xml:space="preserve" xmlns="http://www.w3.org/2000/svg" xmlns:serif="http://www.serif.com/" xmlns:xlink="http://www.w3.org/1999/xlink"><path d="M29.995,8.862c-0.001,-1.656 -1.344,-2.999 -3,-2.999l-15.176,-0c-0.804,-0.001 -1.575,0.323 -2.139,0.896c-1.408,1.432 -5.007,5.092 -7.004,7.123c-1.154,1.173 -1.148,3.057 0.014,4.222c2,2.006 5.592,5.607 6.996,7.017c0.563,0.564 1.328,0.881 2.125,0.881c2.696,0 11.259,0 15.184,0c1.656,0 2.999,-1.343 3,-3l-0,-14.14Zm-2,0l-0,14.14c-0.001,0.553 -0.448,1 -1,1c-0.001,0 -15.184,0 -15.184,0c-0.266,0 -0.521,-0.105 -0.708,-0.294l-6.997,-7.016c-0.387,-0.389 -0.389,-1.016 -0.004,-1.408l7.004,-7.123c0.188,-0.191 0.445,-0.298 0.713,-0.298l15.175,-0c0.553,-0 1,0.447 1.001,0.999Z"/><path d="M19.997,14.593l-4.3,-4.3c-0.391,-0.39 -1.024,-0.39 -1.415,-0c-0.39,0.39 -0.39,1.024 0,1.414l4.301,4.301l-4.301,4.3c-0.39,0.39 -0.39,1.024 0,1.414c0.391,0.391 1.024,0.391 1.415,0l4.3,-4.3l4.301,4.3c0.39,0.391 1.024,0.391 1.414,0c0.39,-0.39 0.39,-1.024 -0,-1.414l-4.301,-4.3l4.301,-4.301c0.39,-0.39 0.39,-1.024 -0,-1.414c-0.39,-0.39 -1.024,-0.39 -1.414,-0l-4.301,4.3Z"/></svg>